<?xml version="1.0" encoding="utf-8"?>
<!-- Generator: Adobe Illustrator 16.0.0, SVG Export Plug-In . SVG Version: 6.00 Build 0)  -->
<!DOCTYPE svg PUBLIC "-//W3C//DTD SVG 1.1//EN" "http://www.w3.org/Graphics/SVG/1.1/DTD/svg11.dtd">
<svg version="1.1" id="Layer_1" xmlns="http://www.w3.org/2000/svg" xmlns:xlink="http://www.w3.org/1999/xlink" x="0px" y="0px"
	 width="25px" height="25px" viewBox="0 0 25 25" enable-background="new 0 0 25 25" xml:space="preserve">
<g>
	<path fill-rule="evenodd" clip-rule="evenodd" fill="#FFFFFF" d="M9.982,13.135c-0.281,0.028-0.55,0.069-0.82,0.077
		c-0.692,0.023-1.307-0.174-1.776-0.707c-0.15-0.17-0.267-0.372-0.392-0.563c-0.105-0.16-0.195-0.331-0.302-0.489
		c-0.162-0.241-0.378-0.424-0.637-0.56c-0.111-0.058-0.224-0.121-0.319-0.202c-0.053-0.044-0.11-0.141-0.095-0.194
		c0.017-0.056,0.116-0.122,0.18-0.123c0.198-0.002,0.406-0.008,0.593,0.046c0.432,0.125,0.737,0.425,0.986,0.792
		c0.136,0.2,0.275,0.407,0.45,0.57c0.542,0.502,1.18,0.531,1.852,0.318c0.031-0.01,0.061-0.026,0.092-0.033
		c0.17-0.044,0.268-0.136,0.317-0.321c0.101-0.375,0.308-0.69,0.621-0.929c0.013-0.01,0.023-0.025,0.026-0.028
		c-0.461-0.095-0.926-0.172-1.382-0.287c-0.683-0.172-1.316-0.457-1.861-0.915C7.208,9.328,6.953,9.025,6.756,8.675
		C6.709,8.593,6.66,8.568,6.568,8.572C5.077,8.64,3.602,8.81,2.158,9.204c-0.036,0.01-0.074,0.01-0.115-0.015
		C3.536,8.739,5.07,8.56,6.645,8.497C6.592,8.371,6.55,8.259,6.498,8.153C6.486,8.13,6.437,8.113,6.405,8.113
		c-0.823,0.014-1.649,0.004-2.47,0.054C3.33,8.204,2.729,8.318,2.126,8.396c-0.041,0.005-0.083,0-0.125-0.024
		C3.463,8.052,4.945,7.99,6.439,8.035C6.374,7.761,6.295,7.501,6.253,7.236c-0.136-0.865-0.199-1.73,0.065-2.586
		c0.156-0.503,0.412-0.952,0.76-1.346c0.069-0.078,0.074-0.138,0.044-0.234C6.867,2.253,6.946,1.452,7.247,0.665
		c0.018-0.047,0.107-0.104,0.155-0.097c0.3,0.04,0.605,0.067,0.893,0.154c0.573,0.173,1.085,0.479,1.58,0.812
		c0.082,0.055,0.151,0.065,0.247,0.041c1.478-0.371,2.962-0.389,4.45-0.054c0.102,0.023,0.175,0.006,0.259-0.048
		c0.552-0.358,1.122-0.68,1.768-0.834c0.198-0.047,0.407-0.054,0.61-0.075c0.091-0.009,0.144,0.033,0.176,0.124
		c0.261,0.736,0.347,1.481,0.152,2.249c-0.012,0.047,0.006,0.122,0.039,0.156c0.75,0.797,1.096,1.746,1.085,2.835
		c-0.008,0.704-0.046,1.403-0.227,2.111c1.542-0.049,3.066,0.005,4.57,0.341c-0.759-0.081-1.515-0.187-2.275-0.235
		c-0.769-0.049-1.542-0.042-2.306-0.059c-0.054,0.153-0.093,0.267-0.142,0.408c1.594,0.06,3.16,0.239,4.688,0.665
		c-0.002,0.017-0.003,0.033-0.004,0.05c-0.034,0-0.071,0.008-0.104-0.001c-0.841-0.232-1.696-0.393-2.562-0.484
		c-0.651-0.068-1.307-0.104-1.961-0.149c-0.041-0.002-0.109,0.033-0.126,0.07c-0.445,0.946-1.235,1.464-2.192,1.774
		c-0.577,0.187-1.171,0.285-1.784,0.351c0.014,0.022,0.02,0.04,0.031,0.049c0.477,0.374,0.713,0.872,0.734,1.467
		c0.018,0.486,0.012,0.974,0.016,1.462c0.004,0.43-0.004,0.861,0.008,1.291c0.012,0.401,0.192,0.707,0.559,0.891
		c0.025,0.013,0.062,0.018,0.074,0.038c0.048,0.074,0.133,0.164,0.117,0.227c-0.015,0.061-0.135,0.127-0.213,0.133
		c-0.297,0.02-0.588-0.023-0.865-0.143c-0.448-0.194-0.672-0.538-0.675-1.022c-0.004-0.66,0.01-1.32-0.004-1.981
		c-0.005-0.229-0.06-0.461-0.111-0.688c-0.023-0.098-0.097-0.184-0.147-0.276c-0.013,0.003-0.026,0.008-0.04,0.012
		c-0.004,0.038-0.011,0.076-0.011,0.114c0,1.166-0.002,2.332,0.005,3.498c0.001,0.161,0.023,0.332,0.08,0.48
		c0.048,0.123,0.151,0.23,0.247,0.327c0.073,0.074,0.138,0.143,0.115,0.252c-0.021,0.113-0.109,0.159-0.212,0.175
		c-0.06,0.01-0.128,0.021-0.181,0c-0.218-0.081-0.447-0.148-0.643-0.268c-0.351-0.215-0.496-0.552-0.491-0.966
		c0.009-0.992,0.007-1.985,0.01-2.978c0.001-0.243,0.001-0.488,0-0.731c0-0.098-0.008-0.198-0.139-0.201
		c-0.138-0.002-0.135,0.102-0.135,0.199c0.001,1.237,0.005,2.472,0.001,3.708c-0.002,0.704-0.548,1.241-1.25,1.248
		c-0.113,0.002-0.224-0.008-0.262-0.137c-0.036-0.122,0.008-0.234,0.113-0.293c0.267-0.15,0.326-0.393,0.327-0.668
		c0.001-0.833,0.002-1.667,0.003-2.5c0-0.427,0-0.853,0-1.279c-0.011-0.006-0.022-0.014-0.034-0.021
		c-0.046,0.061-0.119,0.115-0.135,0.183c-0.06,0.238-0.133,0.48-0.14,0.724c-0.018,0.626-0.024,1.256,0.001,1.882
		c0.038,0.932-0.534,1.263-1.237,1.344c-0.129,0.016-0.264,0.018-0.392,0c-0.062-0.009-0.15-0.065-0.165-0.117
		c-0.015-0.055,0.032-0.141,0.076-0.191c0.039-0.046,0.112-0.064,0.17-0.093c0.344-0.163,0.539-0.424,0.539-0.815
		C9.981,14.45,9.982,13.795,9.982,13.135z M12.636,10.306c0.402,0,0.806,0.013,1.207-0.003c0.542-0.023,1.083-0.082,1.604-0.245
		c0.635-0.199,1.148-0.551,1.426-1.177c0.259-0.583,0.334-1.199,0.228-1.826c-0.157-0.922-1.052-1.698-1.98-1.707
		c-0.587-0.005-1.178,0.019-1.766,0.06c-0.711,0.05-1.42,0.017-2.13-0.012c-0.55-0.023-1.102-0.035-1.652-0.018
		C9.228,5.389,8.905,5.516,8.633,5.74C7.92,6.33,7.637,7.079,7.787,7.997c0.149,0.915,0.645,1.55,1.503,1.892
		c0.264,0.105,0.54,0.188,0.817,0.249C10.939,10.32,11.788,10.327,12.636,10.306z M8.087,12.411
		c0.065-0.068,0.117-0.099,0.129-0.141c0.021-0.073-0.092-0.173-0.188-0.163c-0.043,0.004-0.082,0.053-0.123,0.081
		C7.958,12.254,8.012,12.32,8.087,12.411z M8.661,12.582c0.067-0.069,0.109-0.113,0.152-0.157c-0.059-0.043-0.115-0.107-0.18-0.119
		c-0.043-0.007-0.099,0.062-0.15,0.098C8.534,12.454,8.584,12.505,8.661,12.582z M9.295,12.257c-0.072,0.071-0.12,0.117-0.167,0.164
		c0.054,0.04,0.108,0.108,0.162,0.108c0.056,0,0.113-0.066,0.169-0.103C9.412,12.378,9.365,12.33,9.295,12.257z M7.575,11.619
		c-0.059,0.077-0.102,0.108-0.11,0.147c-0.018,0.086,0.086,0.207,0.173,0.196c0.039-0.005,0.106-0.08,0.1-0.095
		C7.703,11.792,7.647,11.724,7.575,11.619z M7.089,11.285c0.028,0.122,0.067,0.204,0.174,0.201c0.03-0.001,0.084-0.066,0.082-0.099
		c-0.006-0.094-0.056-0.174-0.163-0.174C7.148,11.213,7.115,11.264,7.089,11.285z M7.037,10.962c-0.085-0.059-0.139-0.104-0.2-0.132
		c-0.01-0.005-0.052,0.055-0.079,0.084c0.052,0.044,0.101,0.094,0.159,0.128C6.928,11.051,6.973,11.007,7.037,10.962z M9.937,12.184
		c-0.014-0.015-0.027-0.029-0.041-0.044c-0.05,0.044-0.101,0.088-0.151,0.132c0.041,0.047,0.082,0.093,0.123,0.14
		c0.014-0.009,0.027-0.018,0.04-0.026C9.917,12.317,9.927,12.25,9.937,12.184z M6.542,10.788c0.038-0.049,0.082-0.098,0.078-0.103
		c-0.035-0.036-0.074-0.076-0.12-0.092c-0.02-0.007-0.058,0.036-0.087,0.057C6.45,10.69,6.488,10.73,6.542,10.788z"/>
	<path fill-rule="evenodd" clip-rule="evenodd" fill="#FFFFFF" d="M8.087,12.411c-0.075-0.091-0.129-0.157-0.182-0.222
		c0.041-0.028,0.08-0.077,0.123-0.081c0.097-0.01,0.21,0.09,0.188,0.163C8.204,12.312,8.152,12.343,8.087,12.411z"/>
	<path fill-rule="evenodd" clip-rule="evenodd" fill="#FFFFFF" d="M8.661,12.582c-0.077-0.077-0.127-0.127-0.178-0.178
		c0.051-0.036,0.107-0.105,0.15-0.098c0.065,0.011,0.121,0.076,0.18,0.118C8.771,12.468,8.728,12.512,8.661,12.582z"/>
	<path fill-rule="evenodd" clip-rule="evenodd" fill="#FFFFFF" d="M9.295,12.257c0.07,0.073,0.117,0.121,0.164,0.169
		c-0.057,0.036-0.114,0.103-0.169,0.103c-0.054,0-0.108-0.069-0.162-0.108C9.175,12.375,9.223,12.328,9.295,12.257z"/>
	<path fill-rule="evenodd" clip-rule="evenodd" fill="#FFFFFF" d="M7.575,11.619c0.072,0.105,0.127,0.172,0.163,0.248
		c0.006,0.015-0.061,0.089-0.1,0.095c-0.087,0.011-0.191-0.109-0.173-0.196C7.474,11.727,7.516,11.696,7.575,11.619z"/>
	<path fill-rule="evenodd" clip-rule="evenodd" fill="#FFFFFF" d="M7.089,11.285c0.026-0.021,0.06-0.072,0.094-0.072
		c0.106,0,0.156,0.081,0.163,0.174c0.002,0.033-0.052,0.098-0.082,0.099C7.156,11.489,7.117,11.407,7.089,11.285z"/>
	<path fill-rule="evenodd" clip-rule="evenodd" fill="#FFFFFF" d="M7.037,10.962c-0.064,0.045-0.108,0.088-0.121,0.081
		c-0.058-0.035-0.106-0.084-0.159-0.128c0.027-0.03,0.069-0.09,0.079-0.084C6.898,10.859,6.952,10.903,7.037,10.962z"/>
	<path fill-rule="evenodd" clip-rule="evenodd" fill="#FFFFFF" d="M9.937,12.184c-0.01,0.066-0.02,0.133-0.03,0.201
		c-0.013,0.008-0.026,0.017-0.04,0.026c-0.041-0.046-0.082-0.093-0.123-0.14c0.05-0.043,0.101-0.087,0.151-0.132
		C9.91,12.155,9.923,12.169,9.937,12.184z"/>
	<path fill-rule="evenodd" clip-rule="evenodd" fill="#FFFFFF" d="M6.542,10.788C6.488,10.73,6.45,10.69,6.413,10.65
		c0.03-0.021,0.068-0.064,0.087-0.057c0.046,0.016,0.085,0.056,0.12,0.092C6.624,10.689,6.58,10.738,6.542,10.788z"/>
	<path fill-rule="evenodd" clip-rule="evenodd" fill="#FFFFFF" d="M12.454,9.83c-0.236-0.001-0.456-0.139-0.531-0.344
		c-0.013-0.034,0.008-0.08,0.014-0.121c0.036,0.02,0.091,0.031,0.105,0.062c0.163,0.357,0.672,0.361,0.837-0.006
		c0.013-0.028,0.07-0.037,0.107-0.055c0.004,0.039,0.023,0.081,0.012,0.115C12.933,9.682,12.696,9.831,12.454,9.83z"/>
	<path fill-rule="evenodd" clip-rule="evenodd" fill="#FFFFFF" d="M12.461,9.059c-0.125,0-0.23-0.104-0.233-0.23
		c-0.003-0.131,0.091-0.229,0.225-0.232c0.141-0.003,0.241,0.093,0.24,0.231C12.691,8.953,12.586,9.058,12.461,9.059z"/>
	<path fill-rule="evenodd" clip-rule="evenodd" fill="#FFFFFF" d="M15.468,6.889c-0.245-0.304-0.608-0.3-0.842,0.013
		c-0.151,0.202-0.213,0.434-0.207,0.672c-0.004,0.278,0.059,0.523,0.231,0.73c0.232,0.279,0.576,0.276,0.808-0.002
		C15.762,7.938,15.767,7.259,15.468,6.889z M14.863,7.342c-0.124,0-0.181-0.066-0.194-0.17c-0.011-0.097,0.086-0.191,0.186-0.185
		c0.109,0.007,0.175,0.075,0.175,0.18C15.029,7.271,14.967,7.337,14.863,7.342z"/>
	<path fill-rule="evenodd" clip-rule="evenodd" fill="#FFFFFF" d="M10.417,6.896c-0.244-0.312-0.614-0.309-0.85,0.011
		C9.42,7.105,9.362,7.334,9.361,7.626C9.359,7.843,9.419,8.09,9.59,8.298c0.24,0.291,0.593,0.284,0.826-0.011
		C10.708,7.917,10.708,7.267,10.417,6.896z M9.72,7.366c-0.104,0-0.198-0.091-0.201-0.194C9.515,7.065,9.615,6.963,9.722,6.963
		s0.206,0.104,0.201,0.21C9.918,7.277,9.824,7.367,9.72,7.366z"/>
</g>
<path fill-rule="evenodd" clip-rule="evenodd" fill="#FFFFFF" d="M19.867,9.948c0,3.651-4.369,6.636-4.988,6.636h-4.763
	c-0.621,0-4.988-2.984-4.988-6.636l0,0c0-1.362,0.778-1.354,2.139-1.354h10.46C19.089,8.595,19.867,8.586,19.867,9.948L19.867,9.948
	z"/>
<path fill-rule="evenodd" clip-rule="evenodd" fill="#FFFFFF" d="M16.336,16.394c0,0.244-0.197,0.44-0.441,0.44H9.012
	c-0.244,0-0.441-0.196-0.441-0.44l0,0c0-0.244,0.197-0.441,0.441-0.441h6.883C16.139,15.952,16.336,16.149,16.336,16.394
	L16.336,16.394z"/>
<polygon fill-rule="evenodd" clip-rule="evenodd" fill="#FFFFFF" points="14.767,22.998 10.139,22.998 11.402,19.631 10.139,16.264 
	14.767,16.264 13.504,19.631 "/>
<path fill-rule="evenodd" clip-rule="evenodd" fill="none" stroke="#FFFFFF" stroke-miterlimit="10" d="M5.698,10.458
	c0,0-3.13-1.642-2.845,0.111c0.284,1.753,3.793,6.035,7.05,6.265c3.258,0.229,1.327,0.703,1.327,0.703"/>
<path fill-rule="evenodd" clip-rule="evenodd" fill="none" stroke="#FFFFFF" stroke-miterlimit="10" d="M19.254,10.458
	c0,0,3.13-1.642,2.845,0.111c-0.284,1.753-3.793,6.035-7.05,6.265c-3.257,0.229-1.327,0.703-1.327,0.703"/>
<path fill-rule="evenodd" clip-rule="evenodd" fill="#FFFFFF" d="M18.011,23.608c0,1.214-11.015,1.214-11.015,0
	c0-1.213,2.465-2.195,5.507-2.195S18.011,22.396,18.011,23.608z"/>
<g>
	<path fill-rule="evenodd" clip-rule="evenodd" fill="#FFFFFF" d="M17.5,10.592c0,0-0.209,1.496-2.125,3.057"/>
	<path fill="#FFFFFF" d="M17.5,10.592c0,0,0.071,0.066,0.152,0.203c0.042,0.069,0.09,0.161,0.125,0.254
		c0.02,0.049,0.04,0.102,0.062,0.158c0.019,0.056-0.042,0.085-0.048,0.137c-0.159,0.361-0.39,0.834-0.707,1.235
		c-0.144,0.214-0.314,0.401-0.475,0.577c-0.154,0.182-0.309,0.34-0.453,0.46c-0.046,0.021-0.043,0.09-0.106,0.085
		c-0.058-0.001-0.112-0.001-0.164-0.002c-0.1,0.001-0.193-0.008-0.269-0.015c-0.152-0.016-0.243-0.035-0.243-0.035
		s-0.001-0.092-0.002-0.253c0.003-0.074,0.006-0.163,0.009-0.266c0.002-0.049,0.004-0.101,0.007-0.156
		c-0.003-0.059,0.062-0.047,0.083-0.086c0.13-0.107,0.265-0.246,0.397-0.403c0.139-0.152,0.289-0.314,0.408-0.496
		c0.274-0.343,0.457-0.732,0.587-1.017c0.028-0.031-0.008-0.083,0.039-0.103c0.049-0.021,0.095-0.041,0.139-0.059
		c0.09-0.04,0.168-0.075,0.232-0.103C17.412,10.644,17.5,10.592,17.5,10.592z"/>
</g>
</svg>
